<?xml version="1.0" standalone="no"?>
<!DOCTYPE svg PUBLIC "-//W3C//DTD SVG 20010904//EN"
 "http://www.w3.org/TR/2001/REC-SVG-20010904/DTD/svg10.dtd">
<svg version="1.0" xmlns="http://www.w3.org/2000/svg"
 width="512.000000pt" height="512.000000pt" viewBox="0 0 512.000000 512.000000"
 preserveAspectRatio="xMidYMid meet">
<rect x="0" y="0" width="100%" height="100%" fill="#ffffff" rx="30" ry="30"/>
<g transform="translate(0.000000,512.000000) scale(0.100000,-0.100000)"
fill="#000000" stroke="none">
<path d="M115 5106 c-40 -17 -84 -63 -101 -103 -12 -27 -14 -232 -14 -1163 l0
-1130 1205 0 1205 0 0 1205 0 1205 -1132 0 c-917 -1 -1139 -3 -1163 -14z m590
-495 c25 -12 125 -104 270 -250 l230 -231 240 239 c195 194 248 241 280 251
118 35 227 -84 180 -196 -11 -26 -91 -115 -250 -274 l-235 -235 231 -230 c251
-250 276 -284 264 -357 -10 -55 -68 -113 -123 -123 -73 -12 -107 13 -357 264
l-230 231 -240 -239 c-264 -263 -280 -274 -362 -252 -52 14 -99 66 -108 120
-12 72 13 107 264 356 l231 230 -239 240 c-194 195 -241 248 -251 280 -28 95
44 191 145 194 11 0 38 -8 60 -18z"/>
<path d="M2710 3915 l0 -1205 1205 0 1205 0 0 1123 c0 703 -4 1135 -10 1157
-11 40 -71 104 -113 119 -19 8 -387 11 -1158 11 l-1129 0 0 -1205z m1416 825
c234 -59 442 -227 550 -445 66 -135 87 -224 87 -380 0 -156 -21 -245 -87 -380
-108 -217 -312 -383 -551 -446 -113 -30 -307 -30 -420 0 -237 63 -445 231
-551 446 -66 135 -87 224 -87 380 0 156 21 245 87 380 121 246 363 421 641
465 84 13 237 4 331 -20z"/>
<path d="M3800 4454 c-211 -45 -380 -216 -425 -429 -8 -38 -15 -88 -15 -110 0
-68 28 -177 65 -251 85 -173 295 -304 490 -304 69 0 177 28 252 65 173 85 303
295 303 490 0 195 -130 405 -303 490 -124 61 -241 77 -367 49z"/>
<path d="M0 1281 c0 -771 3 -1139 11 -1158 15 -42 79 -102 119 -113 22 -6 454
-10 1158 -10 l1122 0 0 1205 0 1205 -1205 0 -1205 0 0 -1129z m1416 749 c295
-74 536 -315 615 -615 30 -113 30 -307 0 -420 -63 -239 -229 -443 -446 -551
-135 -66 -224 -87 -380 -87 -157 0 -246 21 -380 88 -219 109 -383 311 -446
550 -30 113 -30 307 0 420 88 333 365 582 706 635 84 13 237 4 331 -20z"/>
<path d="M1090 1744 c-211 -45 -380 -216 -425 -429 -18 -88 -18 -132 0 -220
45 -215 216 -385 430 -430 88 -18 132 -18 220 0 163 34 306 142 379 287 38 75
66 183 66 253 0 195 -130 405 -303 490 -124 61 -241 77 -367 49z"/>
<path d="M2710 1205 l0 -1205 1123 0 c703 0 1135 4 1157 10 45 12 107 75 120
121 6 21 10 449 10 1156 l0 1123 -1205 0 -1205 0 0 -1205z m705 696 c25 -12
125 -104 270 -250 l230 -231 240 239 c195 194 248 241 280 251 118 35 227 -84
180 -196 -11 -26 -91 -115 -250 -274 l-235 -235 231 -230 c251 -250 276 -284
264 -357 -10 -55 -68 -113 -123 -123 -73 -12 -107 13 -357 264 l-230 231 -235
-235 c-159 -159 -248 -239 -274 -250 -112 -47 -231 62 -196 180 10 32 57 85
251 280 l239 240 -231 230 c-251 249 -276 284 -264 356 12 70 77 125 150 128
11 0 38 -8 60 -18z"/>
</g>
</svg>
